<?xml version="1.0" standalone="no"?>
<!DOCTYPE svg PUBLIC "-//W3C//DTD SVG 20010904//EN"
 "http://www.w3.org/TR/2001/REC-SVG-20010904/DTD/svg10.dtd">
<svg version="1.0" xmlns="http://www.w3.org/2000/svg"
 width="507.000000pt" height="492.000000pt" viewBox="0 0 507.000000 492.000000"
 preserveAspectRatio="xMidYMid meet">

<g transform="translate(0.000000,492.000000) scale(0.100000,-0.100000)"
fill="#ffffff" stroke="none">
<path d="M2163 4659 c-40 -20 -93 -76 -93 -98 0 -15 -8 -14 -38 7 -58 41 -124
51 -197 31 -54 -15 -131 -94 -141 -144 -6 -32 -9 -36 -28 -29 -11 4 -49 9 -84
11 -50 4 -71 0 -107 -17 -97 -47 -156 -154 -140 -255 l6 -45 -34 0 c-73 0
-138 -29 -197 -88 -48 -49 -59 -67 -75 -124 -11 -44 -15 -81 -11 -108 6 -38 4
-41 -21 -51 -39 -14 -71 -46 -83 -83 -10 -31 -10 -31 -72 -28 -53 3 -69 0 -98
-20 -48 -33 -80 -83 -80 -128 0 -37 0 -37 -49 -44 -69 -9 -126 -53 -158 -122
-29 -63 -26 -117 7 -172 25 -41 25 -39 -8 -47 -137 -34 -183 -239 -79 -353
l21 -22 -36 -38 c-55 -57 -72 -98 -72 -172 0 -101 50 -180 140 -220 l44 -19
-26 -56 c-23 -50 -26 -67 -22 -134 5 -89 27 -138 87 -198 22 -22 61 -48 86
-57 39 -15 43 -20 35 -36 -22 -41 -5 -117 34 -149 14 -11 12 -17 -15 -51 -65
-81 -41 -209 48 -258 15 -9 15 -12 0 -45 -20 -42 -22 -126 -3 -170 27 -65 111
-117 190 -117 27 0 28 -2 22 -36 -5 -22 -1 -56 9 -90 30 -104 123 -163 239
-151 l54 5 5 -41 c7 -51 50 -112 106 -152 40 -28 49 -30 129 -30 82 0 90 2
134 33 l47 32 15 -27 c23 -45 77 -94 131 -119 38 -18 67 -24 126 -24 89 0 157
28 212 89 l34 38 19 -41 c28 -60 64 -81 134 -80 55 1 58 0 63 -25 6 -30 61
-89 95 -102 41 -16 115 -10 149 11 31 19 32 19 38 0 10 -31 82 -88 120 -96 98
-18 188 19 222 92 17 36 27 41 39 23 13 -22 90 -49 139 -49 94 0 186 66 208
148 9 32 15 41 27 36 8 -4 47 -9 86 -12 58 -3 78 0 111 17 94 47 149 144 139
243 l-6 58 38 0 c148 0 290 155 280 308 -3 45 0 53 17 58 28 9 71 51 85 84 11
26 15 28 68 27 102 -2 182 68 182 160 0 29 2 31 49 37 59 8 106 38 144 92 24
35 29 51 29 103 0 44 -6 71 -21 96 l-21 36 28 11 c141 62 182 243 79 356 l-21
22 36 38 c54 56 71 97 71 172 0 98 -51 179 -135 215 -24 11 -44 20 -46 21 -2
1 7 22 19 46 30 59 37 159 15 226 -23 67 -94 146 -156 173 -47 20 -48 21 -38
51 14 40 4 96 -24 125 -16 17 -19 28 -13 37 40 53 48 71 52 110 7 61 -12 110
-58 150 l-40 34 15 37 c30 71 16 165 -32 218 -34 36 -100 67 -143 67 l-34 0 0
63 c0 137 -105 228 -245 214 l-57 -6 -6 41 c-7 51 -49 113 -104 151 -75 53
-224 46 -278 -13 -24 -26 -32 -25 -49 8 -37 71 -112 121 -215 143 -77 16 -175
-16 -240 -80 l-46 -46 -20 40 c-28 55 -98 91 -150 76 -33 -9 -37 -8 -46 15 -5
14 -9 29 -9 33 0 14 -65 70 -93 80 -42 16 -97 13 -137 -7 l-35 -17 -28 38
c-53 73 -161 97 -244 56z m314 -388 c28 -14 105 -14 138 1 22 10 27 9 40 -8
13 -17 12 -21 -8 -37 -78 -62 -113 -117 -123 -191 l-6 -44 -49 -4 c-60 -6
-119 -44 -156 -99 -23 -35 -27 -53 -28 -108 0 -36 4 -78 8 -92 7 -23 5 -27
-17 -33 -64 -16 -135 -113 -136 -186 0 -36 39 -132 59 -144 7 -4 -4 -21 -28
-44 -69 -65 -68 -157 1 -226 39 -39 40 -41 24 -67 -21 -36 -20 -113 2 -151 9
-16 33 -38 53 -48 32 -17 35 -22 31 -54 -3 -22 2 -45 11 -60 14 -21 13 -27
-14 -81 -16 -32 -29 -63 -29 -69 0 -7 -18 -11 -45 -11 -39 0 -48 4 -64 30 -33
54 -57 68 -114 69 -28 1 -61 -2 -72 -6 -16 -6 -24 -1 -40 29 -27 49 -78 83
-126 83 -34 0 -39 3 -39 23 0 13 -7 46 -15 75 -17 57 -76 117 -130 130 -30 8
-30 8 -30 83 -1 85 -24 141 -76 182 l-32 25 18 39 c11 21 21 66 23 101 5 65
-6 105 -42 156 -15 23 -17 31 -7 34 29 10 94 78 116 122 38 75 42 175 10 253
-6 13 -2 17 18 17 42 0 114 39 150 80 29 34 43 65 63 137 2 8 14 9 41 2 85
-19 175 17 223 89 16 24 30 48 32 53 2 5 21 0 43 -11 56 -29 139 -27 196 4
l44 24 30 -28 c17 -15 40 -33 52 -39z m1076 -371 c45 -12 120 -10 159 5 12 5
18 -1 23 -24 9 -42 58 -106 105 -137 32 -22 53 -27 100 -28 l60 -1 0 -48 c0
-77 56 -162 121 -182 14 -5 18 -12 14 -23 -33 -81 -17 -159 42 -205 20 -16 32
-47 19 -47 -3 0 -28 15 -57 33 -47 29 -60 32 -128 32 -51 0 -87 -6 -108 -17
-32 -16 -32 -16 -49 11 -37 58 -114 100 -184 101 -54 0 -138 -37 -167 -74 -20
-25 -43 -35 -43 -18 0 16 -92 52 -133 52 -23 0 -60 -9 -83 -19 -43 -20 -101
-81 -110 -118 -5 -19 -10 -20 -31 -12 -38 14 -105 11 -143 -9 -39 -19 -71 -68
-80 -121 -4 -28 -10 -35 -24 -33 -27 5 -100 -25 -124 -51 -24 -26 -42 -85 -35
-118 4 -20 -1 -27 -30 -37 -19 -7 -39 -23 -45 -38 -11 -23 -16 -25 -55 -19
-23 3 -55 2 -72 -3 -26 -7 -32 -5 -50 22 l-20 30 22 45 c13 24 23 53 23 63 0
32 -29 92 -55 113 l-25 21 25 34 c29 39 34 118 10 160 -19 33 -18 38 5 45 39
13 89 73 105 128 8 30 14 60 11 68 -19 61 -18 66 28 79 63 17 121 80 139 149
l14 55 48 2 c92 6 196 79 220 154 5 16 7 16 43 -1 115 -57 258 -33 345 58 l27
29 48 -46 c32 -31 64 -51 95 -60z m-2521 -480 c-6 -84 13 -145 62 -195 23 -23
48 -44 56 -47 13 -4 13 -11 -3 -54 -29 -83 -22 -142 30 -216 27 -40 110 -88
151 -88 22 0 24 -3 18 -31 -9 -46 11 -117 45 -160 37 -47 99 -72 168 -68 49 4
51 3 57 -26 22 -104 128 -162 225 -121 32 13 33 13 53 -18 44 -65 136 -85 198
-42 34 23 35 23 58 4 17 -14 36 -19 68 -17 40 3 46 0 59 -26 9 -17 26 -42 39
-56 l24 -25 -25 -24 c-14 -13 -25 -32 -25 -42 0 -15 -8 -18 -55 -18 -51 0 -58
-3 -94 -39 -26 -26 -41 -51 -43 -71 -3 -31 -4 -32 -59 -34 -64 -3 -110 -29
-134 -76 l-15 -29 -45 26 c-65 36 -146 30 -211 -15 l-45 -32 -33 25 c-71 54
-139 67 -214 41 l-40 -15 -26 39 c-50 75 -116 111 -207 111 l-56 1 -6 64 c-9
117 -93 211 -215 244 -35 9 -42 15 -37 28 40 95 18 208 -54 276 l-31 30 29 30
c34 35 61 102 61 152 0 37 -25 110 -47 136 -13 14 -12 17 6 23 66 21 121 105
121 185 0 45 2 50 23 50 29 0 90 38 117 73 12 15 24 46 27 67 9 67 30 49 25
-20z m2479 -437 c23 -27 111 -63 157 -63 23 0 58 6 77 14 34 15 34 14 55 -20
50 -80 144 -129 235 -121 30 2 30 1 36 -58 6 -62 33 -121 76 -166 30 -32 106
-74 151 -84 26 -5 32 -11 27 -23 -4 -10 -11 -38 -17 -63 -15 -64 10 -147 61
-202 l39 -42 -34 -39 c-44 -51 -62 -125 -45 -193 7 -26 19 -55 26 -63 24 -27
21 -39 -15 -58 -19 -11 -48 -38 -64 -61 -25 -34 -30 -51 -30 -101 -1 -56 -2
-60 -25 -60 -63 0 -151 -89 -151 -153 0 -18 -5 -27 -15 -27 -12 0 -14 6 -8 28
27 95 -26 225 -109 268 l-28 14 20 38 c25 47 26 123 1 177 -32 72 -113 132
-180 134 -21 1 -23 4 -17 31 10 53 -12 125 -51 165 -48 49 -93 67 -162 64
l-56 -3 -6 35 c-8 51 -42 94 -89 113 -47 19 -82 19 -130 2 -33 -12 -35 -11
-55 18 -43 65 -142 84 -204 38 -26 -19 -27 -19 -50 -1 -13 11 -39 19 -60 19
-36 0 -39 3 -68 59 -28 53 -29 63 -19 96 9 29 15 35 31 31 34 -9 96 11 126 40
17 16 32 44 37 68 7 40 9 41 45 38 55 -5 103 15 139 58 l33 39 44 -20 c24 -12
63 -21 86 -21 47 0 122 29 144 55 17 21 25 21 42 0z m-572 -649 c33 -54 59
-69 115 -69 28 0 61 4 73 8 17 6 23 3 28 -15 17 -54 81 -98 143 -98 l39 0 1
-44 c2 -86 48 -151 128 -182 l43 -17 -6 -57 c-5 -48 -2 -66 19 -112 15 -33 40
-66 61 -82 l36 -28 -22 -30 c-19 -25 -22 -43 -22 -117 0 -79 3 -91 29 -131 27
-41 27 -43 10 -53 -11 -5 -40 -32 -65 -59 -72 -77 -97 -189 -64 -283 8 -22 15
-41 15 -42 0 -2 -10 -3 -22 -3 -38 0 -122 -45 -152 -81 -33 -39 -56 -88 -56
-121 0 -22 -3 -23 -87 -23 -82 0 -91 -2 -130 -30 -23 -16 -53 -49 -65 -72 -13
-24 -26 -43 -30 -43 -4 0 -23 10 -43 21 -49 29 -146 24 -194 -10 l-33 -23 -31
30 c-18 16 -42 35 -54 41 -28 14 -105 14 -138 -1 -22 -10 -27 -9 -40 8 -13 17
-12 21 7 34 69 47 103 98 122 178 l13 57 51 6 c77 10 147 69 172 145 12 36 9
134 -5 167 -5 11 -3 17 7 17 28 0 97 54 119 94 36 63 33 152 -8 209 l-30 43
24 18 c82 61 83 182 4 249 -32 26 -32 27 -15 58 11 23 15 48 12 85 -5 57 -22
84 -73 115 -25 16 -29 24 -27 57 3 29 -3 44 -22 65 -22 23 -23 29 -10 41 8 8
25 37 39 63 23 48 25 49 70 48 40 -1 48 -5 64 -31z m-319 -193 c0 -10 9 -30
21 -44 l20 -26 -21 -29 c-39 -52 -26 -150 25 -190 l26 -20 -26 -38 c-29 -42
-33 -113 -10 -154 19 -33 18 -38 -4 -45 -28 -8 -81 -65 -97 -101 -16 -37 -20
-88 -10 -129 6 -29 4 -31 -43 -48 -60 -21 -115 -80 -132 -139 -6 -24 -13 -49
-15 -55 -2 -8 -22 -13 -51 -13 -26 0 -66 -9 -89 -19 -47 -21 -107 -79 -124
-120 l-11 -28 -42 21 c-26 12 -68 22 -109 24 -88 5 -157 -18 -213 -72 l-43
-41 -51 46 c-70 66 -150 83 -248 54 -19 -6 -23 -2 -32 32 -24 88 -111 153
-204 153 l-55 0 -4 60 c-5 73 -44 135 -100 163 -34 16 -36 21 -28 43 26 67 1
166 -51 202 -19 13 -26 42 -10 42 5 0 14 -7 21 -15 22 -27 103 -56 156 -56 31
-1 70 7 98 19 45 20 46 20 56 2 33 -62 115 -109 190 -110 52 0 134 35 168 72
l23 26 52 -29 c60 -33 118 -37 175 -13 49 20 99 69 112 110 10 30 14 32 36 24
37 -14 99 -12 139 4 40 17 82 77 88 126 3 23 9 34 18 32 27 -7 98 21 122 47
31 33 50 91 41 125 -5 22 -3 26 15 26 28 0 71 46 71 76 0 23 3 24 75 24 67 0
75 -2 75 -19z"/>
</g>
</svg>
