<?xml version="1.0" standalone="no"?>
<!DOCTYPE svg PUBLIC "-//W3C//DTD SVG 20010904//EN"
 "http://www.w3.org/TR/2001/REC-SVG-20010904/DTD/svg10.dtd">
<svg version="1.0" xmlns="http://www.w3.org/2000/svg"
 width="186.000000pt" height="111.000000pt" viewBox="0 0 186.000000 111.000000"
 preserveAspectRatio="xMidYMid meet">

<g transform="translate(0.000000,111.000000) scale(0.100000,-0.100000)"
fill="#999999" stroke="none">
<path d="M1004 1102 c-5 -4 -57 -63 -115 -132 -58 -69 -141 -167 -185 -218
-43 -51 -95 -113 -114 -136 -19 -24 -107 -128 -195 -231 -211 -249 -265 -313
-265 -320 0 -3 39 -5 88 -5 l87 0 120 141 c66 77 134 157 150 178 17 21 91
110 165 196 74 87 161 190 193 229 32 39 62 72 67 74 5 2 25 -27 43 -65 19
-37 60 -112 91 -167 31 -54 56 -100 56 -101 0 -3 144 -249 178 -305 12 -19 22
-38 22 -42 0 -5 -106 -8 -235 -8 -129 0 -235 3 -235 6 0 4 39 51 88 106 48 55
98 113 112 130 l24 30 -31 57 c-17 31 -35 56 -41 56 -5 0 -47 -43 -93 -96 -46
-52 -131 -148 -189 -214 -157 -177 -173 -196 -169 -200 4 -3 897 -9 972 -6 15
1 27 6 27 13 0 11 -36 74 -247 427 -40 68 -72 127 -71 131 3 8 225 260 351
399 l69 76 -157 3 c-86 1 -223 1 -305 0 l-149 -3 38 -65 37 -65 100 -1 c54 -1
106 -2 114 -3 9 -1 0 -16 -26 -43 -22 -24 -64 -71 -93 -105 -29 -35 -57 -61
-61 -58 -4 3 -23 31 -41 63 -18 31 -38 66 -45 77 -81 141 -122 203 -130 197z"/>
</g>
</svg>
